<mxfile host="app.diagrams.net" modified="2024-04-01T12:29:41.352Z" agent="Mozilla/5.0 (X11; Linux x86_64) AppleWebKit/537.36 (KHTML, like Gecko) Chrome/121.0.0.0 Safari/537.36 Edg/121.0.0.0" etag="wjIvAqxmI6HXsUe8SnE3" version="24.2.1" type="github">
  <diagram id="R2lEEEUBdFMjLlhIrx00" name="Page-1">
    <mxGraphModel dx="1386" dy="2999" grid="1" gridSize="10" guides="1" tooltips="1" connect="1" arrows="1" fold="1" page="1" pageScale="1" pageWidth="850" pageHeight="1100" math="0" shadow="0" extFonts="Permanent Marker^https://fonts.googleapis.com/css?family=Permanent+Marker">
      <root>
        <mxCell id="0" />
        <mxCell id="1" parent="0" />
        <mxCell id="UUWB8JxI6VlObo6ft-MA-34" value="" style="edgeStyle=orthogonalEdgeStyle;rounded=0;orthogonalLoop=1;jettySize=auto;html=1;" parent="1" source="UUWB8JxI6VlObo6ft-MA-1" target="UUWB8JxI6VlObo6ft-MA-33" edge="1">
          <mxGeometry relative="1" as="geometry" />
        </mxCell>
        <mxCell id="UUWB8JxI6VlObo6ft-MA-41" value="" style="edgeStyle=orthogonalEdgeStyle;rounded=0;orthogonalLoop=1;jettySize=auto;html=1;" parent="1" source="UUWB8JxI6VlObo6ft-MA-1" target="UUWB8JxI6VlObo6ft-MA-40" edge="1">
          <mxGeometry relative="1" as="geometry">
            <Array as="points">
              <mxPoint x="420" y="-1970" />
              <mxPoint x="380" y="-1970" />
            </Array>
          </mxGeometry>
        </mxCell>
        <mxCell id="UUWB8JxI6VlObo6ft-MA-1" value="&lt;span style=&quot;font-size: 18px;&quot;&gt;بیمار&lt;/span&gt;" style="rounded=1;whiteSpace=wrap;html=1;" parent="1" vertex="1">
          <mxGeometry x="372.5" y="-2080" width="120" height="60" as="geometry" />
        </mxCell>
        <mxCell id="UUWB8JxI6VlObo6ft-MA-2" style="edgeStyle=orthogonalEdgeStyle;rounded=0;orthogonalLoop=1;jettySize=auto;html=1;entryX=0.5;entryY=0;entryDx=0;entryDy=0;" parent="1" source="UUWB8JxI6VlObo6ft-MA-3" target="UUWB8JxI6VlObo6ft-MA-1" edge="1">
          <mxGeometry relative="1" as="geometry">
            <mxPoint x="415" y="-2150" as="targetPoint" />
          </mxGeometry>
        </mxCell>
        <mxCell id="UUWB8JxI6VlObo6ft-MA-3" value="تعریف&amp;nbsp;&lt;div&gt;بیماری&lt;/div&gt;" style="ellipse;whiteSpace=wrap;html=1;" parent="1" vertex="1">
          <mxGeometry x="312.5" y="-2180" width="75" height="50" as="geometry" />
        </mxCell>
        <mxCell id="UUWB8JxI6VlObo6ft-MA-4" style="edgeStyle=orthogonalEdgeStyle;rounded=0;orthogonalLoop=1;jettySize=auto;html=1;entryX=0.75;entryY=0;entryDx=0;entryDy=0;" parent="1" target="UUWB8JxI6VlObo6ft-MA-1" edge="1">
          <mxGeometry relative="1" as="geometry">
            <mxPoint x="530" y="-2140" as="sourcePoint" />
          </mxGeometry>
        </mxCell>
        <mxCell id="UUWB8JxI6VlObo6ft-MA-7" style="edgeStyle=orthogonalEdgeStyle;rounded=0;orthogonalLoop=1;jettySize=auto;html=1;entryX=1;entryY=0.5;entryDx=0;entryDy=0;" parent="1" source="UUWB8JxI6VlObo6ft-MA-6" target="UUWB8JxI6VlObo6ft-MA-1" edge="1">
          <mxGeometry relative="1" as="geometry" />
        </mxCell>
        <mxCell id="UUWB8JxI6VlObo6ft-MA-6" value="نام بیمار" style="ellipse;whiteSpace=wrap;html=1;" parent="1" vertex="1">
          <mxGeometry x="542.5" y="-2090" width="75" height="50" as="geometry" />
        </mxCell>
        <mxCell id="UUWB8JxI6VlObo6ft-MA-42" style="edgeStyle=orthogonalEdgeStyle;rounded=0;orthogonalLoop=1;jettySize=auto;html=1;entryX=0;entryY=0.5;entryDx=0;entryDy=0;" parent="1" source="UUWB8JxI6VlObo6ft-MA-8" target="UUWB8JxI6VlObo6ft-MA-40" edge="1">
          <mxGeometry relative="1" as="geometry">
            <Array as="points">
              <mxPoint x="285" y="-1840" />
              <mxPoint x="285" y="-1900" />
            </Array>
          </mxGeometry>
        </mxCell>
        <mxCell id="UUWB8JxI6VlObo6ft-MA-49" style="edgeStyle=orthogonalEdgeStyle;rounded=0;orthogonalLoop=1;jettySize=auto;html=1;entryX=0;entryY=0.5;entryDx=0;entryDy=0;" parent="1" source="UUWB8JxI6VlObo6ft-MA-8" target="UUWB8JxI6VlObo6ft-MA-47" edge="1">
          <mxGeometry relative="1" as="geometry" />
        </mxCell>
        <mxCell id="UUWB8JxI6VlObo6ft-MA-8" value="&lt;span style=&quot;font-size: 18px;&quot;&gt;پزشک&lt;/span&gt;" style="rounded=1;whiteSpace=wrap;html=1;" parent="1" vertex="1">
          <mxGeometry x="110" y="-1860" width="120" height="60" as="geometry" />
        </mxCell>
        <mxCell id="UUWB8JxI6VlObo6ft-MA-9" style="edgeStyle=orthogonalEdgeStyle;rounded=0;orthogonalLoop=1;jettySize=auto;html=1;entryX=0.5;entryY=0;entryDx=0;entryDy=0;" parent="1" source="UUWB8JxI6VlObo6ft-MA-10" target="UUWB8JxI6VlObo6ft-MA-8" edge="1">
          <mxGeometry relative="1" as="geometry">
            <mxPoint x="152.5" y="-1930" as="targetPoint" />
          </mxGeometry>
        </mxCell>
        <mxCell id="UUWB8JxI6VlObo6ft-MA-10" value="مدرک&lt;div&gt;تحصیلی&lt;/div&gt;" style="ellipse;whiteSpace=wrap;html=1;" parent="1" vertex="1">
          <mxGeometry x="50" y="-1960" width="75" height="50" as="geometry" />
        </mxCell>
        <mxCell id="UUWB8JxI6VlObo6ft-MA-11" style="edgeStyle=orthogonalEdgeStyle;rounded=0;orthogonalLoop=1;jettySize=auto;html=1;entryX=0.75;entryY=0;entryDx=0;entryDy=0;exitX=0.5;exitY=1;exitDx=0;exitDy=0;" parent="1" source="r_t4AuF_sLai2iyTPVba-3" target="UUWB8JxI6VlObo6ft-MA-8" edge="1">
          <mxGeometry relative="1" as="geometry">
            <mxPoint x="245" y="-1920" as="sourcePoint" />
          </mxGeometry>
        </mxCell>
        <mxCell id="UUWB8JxI6VlObo6ft-MA-27" style="edgeStyle=orthogonalEdgeStyle;rounded=0;orthogonalLoop=1;jettySize=auto;html=1;entryX=0.25;entryY=1;entryDx=0;entryDy=0;" parent="1" source="UUWB8JxI6VlObo6ft-MA-14" target="UUWB8JxI6VlObo6ft-MA-8" edge="1">
          <mxGeometry relative="1" as="geometry" />
        </mxCell>
        <mxCell id="UUWB8JxI6VlObo6ft-MA-14" value="نام پزشک" style="ellipse;whiteSpace=wrap;html=1;" parent="1" vertex="1">
          <mxGeometry x="20" y="-1800" width="75" height="50" as="geometry" />
        </mxCell>
        <mxCell id="UUWB8JxI6VlObo6ft-MA-54" value="" style="edgeStyle=orthogonalEdgeStyle;rounded=0;orthogonalLoop=1;jettySize=auto;html=1;" parent="1" source="UUWB8JxI6VlObo6ft-MA-15" target="UUWB8JxI6VlObo6ft-MA-53" edge="1">
          <mxGeometry relative="1" as="geometry" />
        </mxCell>
        <mxCell id="UUWB8JxI6VlObo6ft-MA-15" value="&lt;span style=&quot;font-size: 18px;&quot;&gt;تجهیزات پزشکی&lt;/span&gt;" style="rounded=1;whiteSpace=wrap;html=1;" parent="1" vertex="1">
          <mxGeometry x="385" y="-1700" width="130" height="60" as="geometry" />
        </mxCell>
        <mxCell id="UUWB8JxI6VlObo6ft-MA-31" style="edgeStyle=orthogonalEdgeStyle;rounded=0;orthogonalLoop=1;jettySize=auto;html=1;entryX=0.5;entryY=1;entryDx=0;entryDy=0;" parent="1" target="UUWB8JxI6VlObo6ft-MA-15" edge="1">
          <mxGeometry relative="1" as="geometry">
            <mxPoint x="410" y="-1590" as="sourcePoint" />
          </mxGeometry>
        </mxCell>
        <mxCell id="UUWB8JxI6VlObo6ft-MA-56" style="edgeStyle=orthogonalEdgeStyle;rounded=0;orthogonalLoop=1;jettySize=auto;html=1;entryX=0;entryY=0.5;entryDx=0;entryDy=0;" parent="1" source="UUWB8JxI6VlObo6ft-MA-21" target="UUWB8JxI6VlObo6ft-MA-15" edge="1">
          <mxGeometry relative="1" as="geometry" />
        </mxCell>
        <mxCell id="UUWB8JxI6VlObo6ft-MA-21" value="نام وسیله" style="ellipse;whiteSpace=wrap;html=1;" parent="1" vertex="1">
          <mxGeometry x="260" y="-1660" width="75" height="50" as="geometry" />
        </mxCell>
        <mxCell id="UUWB8JxI6VlObo6ft-MA-36" style="edgeStyle=orthogonalEdgeStyle;rounded=0;orthogonalLoop=1;jettySize=auto;html=1;entryX=1;entryY=0.5;entryDx=0;entryDy=0;" parent="1" source="UUWB8JxI6VlObo6ft-MA-22" target="UUWB8JxI6VlObo6ft-MA-33" edge="1">
          <mxGeometry relative="1" as="geometry">
            <Array as="points">
              <mxPoint x="560" y="-1890" />
              <mxPoint x="560" y="-1890" />
            </Array>
          </mxGeometry>
        </mxCell>
        <mxCell id="UUWB8JxI6VlObo6ft-MA-48" value="" style="edgeStyle=orthogonalEdgeStyle;rounded=0;orthogonalLoop=1;jettySize=auto;html=1;" parent="1" source="UUWB8JxI6VlObo6ft-MA-22" target="UUWB8JxI6VlObo6ft-MA-47" edge="1">
          <mxGeometry relative="1" as="geometry">
            <Array as="points">
              <mxPoint x="408" y="-1850" />
            </Array>
          </mxGeometry>
        </mxCell>
        <mxCell id="UUWB8JxI6VlObo6ft-MA-57" style="edgeStyle=orthogonalEdgeStyle;rounded=0;orthogonalLoop=1;jettySize=auto;html=1;" parent="1" source="UUWB8JxI6VlObo6ft-MA-22" target="UUWB8JxI6VlObo6ft-MA-53" edge="1">
          <mxGeometry relative="1" as="geometry" />
        </mxCell>
        <mxCell id="UUWB8JxI6VlObo6ft-MA-22" value="&lt;span style=&quot;font-size: 18px;&quot;&gt;بخش&lt;/span&gt;" style="rounded=1;whiteSpace=wrap;html=1;" parent="1" vertex="1">
          <mxGeometry x="580" y="-1910" width="130" height="60" as="geometry" />
        </mxCell>
        <mxCell id="UUWB8JxI6VlObo6ft-MA-52" style="edgeStyle=orthogonalEdgeStyle;rounded=0;orthogonalLoop=1;jettySize=auto;html=1;" parent="1" target="UUWB8JxI6VlObo6ft-MA-22" edge="1">
          <mxGeometry relative="1" as="geometry">
            <mxPoint x="672.5" y="-1960" as="sourcePoint" />
          </mxGeometry>
        </mxCell>
        <mxCell id="UUWB8JxI6VlObo6ft-MA-25" style="edgeStyle=orthogonalEdgeStyle;rounded=0;orthogonalLoop=1;jettySize=auto;html=1;entryX=1;entryY=0.5;entryDx=0;entryDy=0;" parent="1" source="UUWB8JxI6VlObo6ft-MA-26" target="UUWB8JxI6VlObo6ft-MA-22" edge="1">
          <mxGeometry relative="1" as="geometry" />
        </mxCell>
        <mxCell id="UUWB8JxI6VlObo6ft-MA-26" value="نام بخش" style="ellipse;whiteSpace=wrap;html=1;" parent="1" vertex="1">
          <mxGeometry x="750" y="-1970" width="75" height="50" as="geometry" />
        </mxCell>
        <mxCell id="UUWB8JxI6VlObo6ft-MA-33" value="تعلق" style="rhombus;whiteSpace=wrap;html=1;rounded=1;" parent="1" vertex="1">
          <mxGeometry x="425" y="-1970" width="80" height="80" as="geometry" />
        </mxCell>
        <mxCell id="UUWB8JxI6VlObo6ft-MA-37" value="&lt;font style=&quot;font-size: 14px;&quot;&gt;n&lt;/font&gt;" style="text;html=1;align=center;verticalAlign=middle;resizable=0;points=[];autosize=1;strokeColor=none;fillColor=none;" parent="1" vertex="1">
          <mxGeometry x="395" y="-2020" width="30" height="30" as="geometry" />
        </mxCell>
        <mxCell id="UUWB8JxI6VlObo6ft-MA-39" value="&lt;font style=&quot;font-size: 14px;&quot;&gt;1&lt;/font&gt;" style="text;html=1;align=center;verticalAlign=middle;resizable=0;points=[];autosize=1;strokeColor=none;fillColor=none;" parent="1" vertex="1">
          <mxGeometry x="550" y="-1920" width="30" height="30" as="geometry" />
        </mxCell>
        <mxCell id="UUWB8JxI6VlObo6ft-MA-40" value="&lt;div&gt;معالجه&lt;/div&gt;&lt;div&gt;شدن&lt;/div&gt;" style="rhombus;whiteSpace=wrap;html=1;rounded=1;" parent="1" vertex="1">
          <mxGeometry x="340" y="-1940" width="80" height="80" as="geometry" />
        </mxCell>
        <mxCell id="UUWB8JxI6VlObo6ft-MA-43" value="&lt;font style=&quot;font-size: 14px;&quot;&gt;1&lt;/font&gt;" style="text;html=1;align=center;verticalAlign=middle;resizable=0;points=[];autosize=1;strokeColor=none;fillColor=none;" parent="1" vertex="1">
          <mxGeometry x="230" y="-1870" width="30" height="30" as="geometry" />
        </mxCell>
        <mxCell id="UUWB8JxI6VlObo6ft-MA-44" value="&lt;font style=&quot;font-size: 14px;&quot;&gt;n&lt;/font&gt;" style="text;html=1;align=center;verticalAlign=middle;resizable=0;points=[];autosize=1;strokeColor=none;fillColor=none;" parent="1" vertex="1">
          <mxGeometry x="432.5" y="-2020" width="30" height="30" as="geometry" />
        </mxCell>
        <mxCell id="UUWB8JxI6VlObo6ft-MA-47" value="شامل&amp;nbsp;" style="rhombus;whiteSpace=wrap;html=1;rounded=1;" parent="1" vertex="1">
          <mxGeometry x="367.5" y="-1830" width="80" height="80" as="geometry" />
        </mxCell>
        <mxCell id="UUWB8JxI6VlObo6ft-MA-50" value="&lt;font style=&quot;font-size: 14px;&quot;&gt;1&lt;/font&gt;" style="text;html=1;align=center;verticalAlign=middle;resizable=0;points=[];autosize=1;strokeColor=none;fillColor=none;" parent="1" vertex="1">
          <mxGeometry x="542.5" y="-1850" width="30" height="30" as="geometry" />
        </mxCell>
        <mxCell id="UUWB8JxI6VlObo6ft-MA-51" value="&lt;span style=&quot;font-size: 14px;&quot;&gt;n&lt;/span&gt;" style="text;html=1;align=center;verticalAlign=middle;resizable=0;points=[];autosize=1;strokeColor=none;fillColor=none;" parent="1" vertex="1">
          <mxGeometry x="230" y="-1830" width="30" height="30" as="geometry" />
        </mxCell>
        <mxCell id="UUWB8JxI6VlObo6ft-MA-53" value="دارای" style="rhombus;whiteSpace=wrap;html=1;rounded=1;" parent="1" vertex="1">
          <mxGeometry x="618" y="-1790" width="80" height="80" as="geometry" />
        </mxCell>
        <mxCell id="UUWB8JxI6VlObo6ft-MA-58" value="&lt;font style=&quot;font-size: 14px;&quot;&gt;1&lt;/font&gt;" style="text;html=1;align=center;verticalAlign=middle;resizable=0;points=[];autosize=1;strokeColor=none;fillColor=none;" parent="1" vertex="1">
          <mxGeometry x="643" y="-1850" width="30" height="30" as="geometry" />
        </mxCell>
        <mxCell id="UUWB8JxI6VlObo6ft-MA-59" value="&lt;span style=&quot;font-size: 14px;&quot;&gt;n&lt;/span&gt;" style="text;html=1;align=center;verticalAlign=middle;resizable=0;points=[];autosize=1;strokeColor=none;fillColor=none;" parent="1" vertex="1">
          <mxGeometry x="512.5" y="-1670" width="30" height="30" as="geometry" />
        </mxCell>
        <mxCell id="r_t4AuF_sLai2iyTPVba-1" value="&lt;span style=&quot;border-bottom: 1px dotted&quot;&gt;کد شناسنامه&lt;/span&gt;" style="ellipse;whiteSpace=wrap;html=1;align=center;" vertex="1" parent="1">
          <mxGeometry x="530" y="-2160" width="100" height="40" as="geometry" />
        </mxCell>
        <mxCell id="r_t4AuF_sLai2iyTPVba-2" value="&lt;span style=&quot;border-bottom: 1px dotted&quot;&gt;کد بخش&lt;/span&gt;" style="ellipse;whiteSpace=wrap;html=1;align=center;" vertex="1" parent="1">
          <mxGeometry x="620" y="-2000" width="100" height="40" as="geometry" />
        </mxCell>
        <mxCell id="r_t4AuF_sLai2iyTPVba-3" value="شماره شناسنامه" style="ellipse;whiteSpace=wrap;html=1;align=center;" vertex="1" parent="1">
          <mxGeometry x="200" y="-1980" width="100" height="40" as="geometry" />
        </mxCell>
        <mxCell id="r_t4AuF_sLai2iyTPVba-4" value="کد وسیله" style="ellipse;whiteSpace=wrap;html=1;align=center;" vertex="1" parent="1">
          <mxGeometry x="357.5" y="-1590" width="100" height="40" as="geometry" />
        </mxCell>
      </root>
    </mxGraphModel>
  </diagram>
</mxfile>
